<svg xmlns="http://www.w3.org/2000/svg" width="27.209" height="27.209" viewBox="0 0 27.209 27.209"><defs><style>.a{fill:#0d72a0;}</style></defs><path class="a" d="M26.433,19.228l-5.952-2.551a1.275,1.275,0,0,0-1.488.367l-2.636,3.221a19.7,19.7,0,0,1-9.417-9.417l3.221-2.636a1.272,1.272,0,0,0,.367-1.488L7.977.771A1.284,1.284,0,0,0,6.515.033L.988,1.308A1.275,1.275,0,0,0,0,2.551,24.656,24.656,0,0,0,24.659,27.21a1.275,1.275,0,0,0,1.244-.988l1.275-5.527a1.291,1.291,0,0,0-.745-1.467Z" transform="translate(0 0)"/></svg>