<svg xmlns="http://www.w3.org/2000/svg" width="24.789" height="20.133" viewBox="0 0 24.789 20.133"><defs><style>.a{fill:#0d72a0;}</style></defs><path class="a" d="M22.241,8.4c.016.22.016.44.016.661A14.356,14.356,0,0,1,7.8,23.514,14.357,14.357,0,0,1,0,21.233a10.51,10.51,0,0,0,1.227.063,10.175,10.175,0,0,0,6.307-2.171A5.089,5.089,0,0,1,2.784,15.6a6.407,6.407,0,0,0,.96.079,5.373,5.373,0,0,0,1.337-.173,5.081,5.081,0,0,1-4.074-4.986v-.063a5.117,5.117,0,0,0,2.3.645A5.088,5.088,0,0,1,1.73,4.309,14.441,14.441,0,0,0,12.206,9.625a5.735,5.735,0,0,1-.126-1.164,5.085,5.085,0,0,1,8.793-3.476A10,10,0,0,0,24.1,3.758a5.067,5.067,0,0,1-2.234,2.8,10.185,10.185,0,0,0,2.926-.786A10.921,10.921,0,0,1,22.241,8.4Z" transform="translate(0 -3.381)"/></svg>