<svg xmlns="http://www.w3.org/2000/svg" width="27.209" height="24.186" viewBox="0 0 27.209 24.186"><defs><style>.a{fill:#0d72a0;}</style></defs><path class="a" d="M13.6,0A5.952,5.952,0,0,0,7.653,5.952c0,2.658,3.89,7.5,5.38,9.26a.745.745,0,0,0,1.143,0c1.49-1.758,5.38-6.6,5.38-9.26A5.952,5.952,0,0,0,13.6,0Zm0,7.936a1.984,1.984,0,1,1,1.984-1.984A1.984,1.984,0,0,1,13.6,7.936ZM.95,10.2A1.512,1.512,0,0,0,0,11.6V23.429a.756.756,0,0,0,1.036.7l6.522-2.968V10.152a14.306,14.306,0,0,1-1-2.193ZM13.6,16.99a2.257,2.257,0,0,1-1.725-.8c-.929-1.1-1.916-2.344-2.81-3.624v8.6l9.07,3.023V12.565c-.894,1.28-1.881,2.528-2.81,3.624A2.258,2.258,0,0,1,13.6,16.99ZM26.173,7.613l-6.522,2.968v13.6l6.608-2.643a1.511,1.511,0,0,0,.95-1.4V8.315A.756.756,0,0,0,26.173,7.613Z"/></svg>