<svg xmlns="http://www.w3.org/2000/svg" width="21.196" height="21.196" viewBox="0 0 21.196 21.196"><defs><style>.a{fill:#0d72a0;}</style></defs><path class="a" d="M7.859,19.957a2.12,2.12,0,1,0,2.12,2.12A2.117,2.117,0,0,0,7.859,19.957ZM1.5,3V5.12H3.62l3.815,8.044L6,15.76a2.049,2.049,0,0,0-.265,1.017,2.126,2.126,0,0,0,2.12,2.12H20.576v-2.12H8.3a.262.262,0,0,1-.265-.265l.032-.127.954-1.727h7.9a2.11,2.11,0,0,0,1.855-1.092l3.794-6.878a1.035,1.035,0,0,0,.127-.509,1.063,1.063,0,0,0-1.06-1.06H5.962L4.966,3ZM18.457,19.957a2.12,2.12,0,1,0,2.12,2.12A2.117,2.117,0,0,0,18.457,19.957Z" transform="translate(-1.5 -3)"/></svg>