<svg xmlns="http://www.w3.org/2000/svg" width="21.703" height="21.697" viewBox="0 0 21.703 21.697"><defs><style>.a{fill:#0d72a0;}</style></defs><path class="a" d="M10.848,7.523a5.563,5.563,0,1,0,5.563,5.563A5.554,5.554,0,0,0,10.848,7.523Zm0,9.18a3.617,3.617,0,1,1,3.617-3.617A3.623,3.623,0,0,1,10.848,16.7ZM17.937,7.3a1.3,1.3,0,1,1-1.3-1.3A1.295,1.295,0,0,1,17.937,7.3Zm3.684,1.317a6.421,6.421,0,0,0-1.753-4.546,6.464,6.464,0,0,0-4.546-1.753c-1.791-.1-7.161-.1-8.952,0A6.454,6.454,0,0,0,1.824,4.062,6.442,6.442,0,0,0,.071,8.608c-.1,1.791-.1,7.161,0,8.952a6.421,6.421,0,0,0,1.753,4.546A6.472,6.472,0,0,0,6.37,23.859c1.791.1,7.161.1,8.952,0a6.421,6.421,0,0,0,4.546-1.753,6.463,6.463,0,0,0,1.753-4.546c.1-1.791.1-7.156,0-8.947ZM19.307,19.482a3.662,3.662,0,0,1-2.063,2.063c-1.428.566-4.817.436-6.4.436s-4.972.126-6.4-.436A3.662,3.662,0,0,1,2.39,19.482c-.566-1.428-.436-4.817-.436-6.4s-.126-4.972.436-6.4A3.662,3.662,0,0,1,4.453,4.628c1.428-.566,4.817-.436,6.4-.436s4.972-.126,6.4.436a3.662,3.662,0,0,1,2.063,2.063c.566,1.428.436,4.817.436,6.4S19.873,18.059,19.307,19.482Z" transform="translate(0.005 -2.238)"/></svg>